<?xml version="1.0" encoding="UTF-8" standalone="no"?>
<svg
   xmlns:dc="http://purl.org/dc/elements/1.1/"
   xmlns:cc="http://creativecommons.org/ns#"
   xmlns:rdf="http://www.w3.org/1999/02/22-rdf-syntax-ns#"
   xmlns:svg="http://www.w3.org/2000/svg"
   xmlns="http://www.w3.org/2000/svg"
   xmlns:sodipodi="http://sodipodi.sourceforge.net/DTD/sodipodi-0.dtd"
   xmlns:inkscape="http://www.inkscape.org/namespaces/inkscape"
   version="1.1"
   x="0px"
   y="0px"
   viewBox="0 0 32 32"
   enable-background="new 0 0 32 32"
   xml:space="preserve"
   id="svg102"
   sodipodi:docname="logo-html.svg"
   inkscape:version="1.0.2 (e86c870879, 2021-01-15)"
   width="32"
   height="32"><metadata
     id="metadata108"><rdf:RDF><cc:Work
         rdf:about=""><dc:format>image/svg+xml</dc:format><dc:type
           rdf:resource="http://purl.org/dc/dcmitype/StillImage" /><dc:title></dc:title></cc:Work></rdf:RDF></metadata><defs
     id="defs106" /><sodipodi:namedview
     pagecolor="#ffffff"
     bordercolor="#666666"
     borderopacity="1"
     objecttolerance="10"
     gridtolerance="10"
     guidetolerance="10"
     inkscape:pageopacity="0"
     inkscape:pageshadow="2"
     inkscape:window-width="1920"
     inkscape:window-height="986"
     id="namedview104"
     showgrid="false"
     inkscape:zoom="14.142136"
     inkscape:cx="-13.160811"
     inkscape:cy="9.1619173"
     inkscape:window-x="-11"
     inkscape:window-y="-11"
     inkscape:window-maximized="1"
     inkscape:current-layer="svg102"
     inkscape:document-rotation="0"
     fit-margin-top="0"
     fit-margin-left="0"
     fit-margin-right="0"
     fit-margin-bottom="0" /><g
     display="none"
     id="g4"><rect
       x="-12"
       y="-93.338997"
       display="inline"
       fill="#000000"
       width="404.66699"
       height="211.33299"
       id="rect2" /></g><g
     display="none"
     id="g36"><g
       display="inline"
       id="g30"><g
         id="g22"><g
           id="g8"><path
             d="m 22.891,6.5 c 0.169,0 0.312,0.143 0.312,0.312 v 18.375 c 0,0.169 -0.143,0.312 -0.312,0.312 H 9.109 c -0.169,0 -0.312,-0.143 -0.312,-0.312 V 6.813 C 8.797,6.643 8.94,6.5 9.109,6.5 h 13.782 m 0,-1 H 9.109 C 8.387,5.5 7.797,6.091 7.797,6.812 v 18.375 c 0,0.722 0.591,1.312 1.312,1.312 H 22.89 c 0.722,0 1.312,-0.591 1.312,-1.312 V 6.813 C 24.203,6.091 23.612,5.5 22.891,5.5 Z"
             id="path6" /></g><g
           id="g14"><g
             id="g12"><line
               fill="none"
               stroke="#000000"
               stroke-miterlimit="10"
               x1="11.083"
               y1="22.59"
               x2="20.917"
               y2="22.59"
               id="line10" /></g></g><g
           id="g20"><g
             id="g18"><line
               fill="none"
               stroke="#000000"
               stroke-miterlimit="10"
               x1="11.083"
               y1="19.608999"
               x2="20.917"
               y2="19.608999"
               id="line16" /></g></g></g><g
         id="g28"><g
           id="g26"><text
             transform="translate(9.6636,14.3356)"
             font-family="Arial-BoldMT"
             font-size="4.5938px"
             id="text24">HTML</text></g></g></g><g
       display="inline"
       id="g34"><path
         d="M 16,1 C 24.271,1 31,7.729 31,16 31,24.271 24.271,31 16,31 7.729,31 1,24.271 1,16 1,7.729 7.729,1 16,1 M 16,0 C 7.163,0 0,7.163 0,16 0,24.837 7.163,32 16,32 24.837,32 32,24.837 32,16 32,7.163 24.837,0 16,0 Z"
         id="path32" /></g></g><g
     id="g56"
     style="stroke-width:0.5;stroke-miterlimit:4;stroke-dasharray:none"><g
       id="g54"
       style="fill:#fd7e37;fill-opacity:1;stroke-width:0.5;stroke-miterlimit:4;stroke-dasharray:none"><path
         d="M 9.109,26.5 H 22.89 c 0.722,0 1.312,-0.591 1.312,-1.312 V 6.812 C 24.202,6.09 23.611,5.5 22.89,5.5 H 9.109 C 8.387,5.5 7.797,6.091 7.797,6.812 v 18.375 c 0,0.722 0.591,1.313 1.312,1.313 z m 0.688,-19 h 12.406 v 17 H 9.797 Z"
         id="path38"
         style="fill:#fd7e37;fill-opacity:1;stroke-width:0.5;stroke-miterlimit:4;stroke-dasharray:none" /><polygon
         points="12.892,12.546 11.889,12.546 11.889,11.548 11.377,11.548 11.377,14.083 11.889,14.083 11.889,12.974 12.892,12.974 12.892,14.083 13.404,14.083 13.404,11.548 12.892,11.548 "
         id="polygon42"
         style="fill:#fd7e37;fill-opacity:1;stroke-width:0.5;stroke-miterlimit:4;stroke-dasharray:none" /><polygon
         points="13.751,11.976 14.503,11.976 14.503,14.083 15.016,14.083 15.016,11.976 15.766,11.976 15.766,11.548 13.751,11.548 "
         id="polygon44"
         style="fill:#fd7e37;fill-opacity:1;stroke-width:0.5;stroke-miterlimit:4;stroke-dasharray:none" /><polygon
         points="18.537,11.548 17.77,11.548 17.315,13.277 16.855,11.548 16.089,11.548 16.089,14.083 16.564,14.083 16.564,12.088 17.066,14.083 17.559,14.083 18.062,12.088 18.062,14.083 18.537,14.083 "
         id="polygon46"
         style="fill:#fd7e37;fill-opacity:1;stroke-width:0.5;stroke-miterlimit:4;stroke-dasharray:none" /><polygon
         points="20.845,13.656 19.572,13.656 19.572,11.568 19.061,11.568 19.061,14.083 20.845,14.083 "
         id="polygon48"
         style="fill:#fd7e37;fill-opacity:1;stroke-width:0.5;stroke-miterlimit:4;stroke-dasharray:none" /><path
         d="M 16,32 C 24.837,32 32,24.837 32,16 32,7.163 24.837,0 16,0 7.163,0 0,7.163 0,16 0,24.837 7.163,32 16,32 Z M 16,2 C 23.72,2 30,8.28 30,16 30,23.72 23.72,30 16,30 8.28,30 2,23.72 2,16 2,8.28 8.28,2 16,2 Z"
         id="path52"
         style="fill:#fd7e37;fill-opacity:1;stroke-width:0.3;stroke-miterlimit:4;stroke-dasharray:none" /></g></g><g
     display="none"
     id="g64"><g
       display="inline"
       id="g62"><path
         d="M 9.109,25.5 H 22.89 c 0.169,0 0.312,-0.143 0.312,-0.312 V 6.812 C 23.202,6.643 23.059,6.5 22.89,6.5 H 9.109 C 8.94,6.5 8.797,6.643 8.797,6.812 v 18.375 c 0,0.17 0.143,0.313 0.312,0.313 z m 11.808,-2.41 h -9.834 v -1 h 9.834 z m 0,-2.981 h -9.834 v -1 h 9.834 z m -0.951,-9.035 h 0.664 v 2.708 h 1.651 v 0.554 h -2.315 z m -3.854,-0.026 h 0.993 l 0.597,2.243 0.59,-2.243 h 0.996 v 3.288 h -0.616 v -2.589 l -0.653,2.589 H 17.38 l -0.651,-2.589 v 2.589 h -0.617 z m -3.032,0 h 2.613 v 0.556 h -0.974 v 2.732 H 14.055 V 11.604 H 13.08 Z m -3.08,0 h 0.664 v 1.294 h 1.301 v -1.294 h 0.664 v 3.288 h -0.664 v -1.438 h -1.301 v 1.438 H 10 Z"
         id="path58" /><path
         d="M 16,32 C 24.837,32 32,24.837 32,16 32,7.163 24.837,0 16,0 7.163,0 0,7.163 0,16 0,24.837 7.163,32 16,32 Z M 7.797,6.812 C 7.797,6.09 8.388,5.5 9.109,5.5 H 22.89 c 0.722,0 1.312,0.591 1.312,1.312 v 18.375 c 0,0.722 -0.591,1.312 -1.312,1.312 H 9.109 c -0.722,0 -1.312,-0.591 -1.312,-1.312 z"
         id="path60" /></g></g><g
     display="none"
     id="g96"><g
       display="inline"
       id="g90"><g
         id="g82"><g
           id="g68"><path
             d="m 22.891,6 c 0.448,0 0.812,0.364 0.812,0.812 v 18.375 c 0,0.448 -0.364,0.812 -0.812,0.812 H 9.109 c -0.448,0 -0.812,-0.364 -0.812,-0.812 V 6.813 C 8.297,6.364 8.661,6 9.109,6 h 13.782 m 0,-0.5 H 9.109 C 8.387,5.5 7.797,6.091 7.797,6.812 v 18.375 c 0,0.722 0.591,1.312 1.312,1.312 H 22.89 c 0.722,0 1.312,-0.591 1.312,-1.312 V 6.813 C 24.203,6.091 23.612,5.5 22.891,5.5 Z"
             id="path66" /></g><g
           id="g74"><g
             id="g72"><line
               fill="none"
               stroke="#000000"
               stroke-width="0.5"
               stroke-miterlimit="10"
               x1="11.083"
               y1="22.59"
               x2="20.917"
               y2="22.59"
               id="line70" /></g></g><g
           id="g80"><g
             id="g78"><line
               fill="none"
               stroke="#000000"
               stroke-width="0.5"
               stroke-miterlimit="10"
               x1="11.083"
               y1="19.608999"
               x2="20.917"
               y2="19.608999"
               id="line76" /></g></g></g><g
         id="g88"><g
           id="g86"><text
             transform="translate(9.6636,14.3356)"
             font-family="Arial-BoldMT"
             font-size="4.5938px"
             id="text84">HTML</text></g></g></g><g
       display="inline"
       id="g94"><path
         d="M 16,0.5 C 24.547,0.5 31.5,7.453 31.5,16 31.5,24.547 24.547,31.5 16,31.5 7.453,31.5 0.5,24.547 0.5,16 0.5,7.453 7.453,0.5 16,0.5 M 16,0 C 7.163,0 0,7.163 0,16 0,24.837 7.163,32 16,32 24.837,32 32,24.837 32,16 32,7.163 24.837,0 16,0 Z"
         id="path92" /></g></g><text
     x="0"
     y="47"
     fill="#000000"
     font-size="5px"
     font-weight="bold"
     font-family="'Helvetica Neue', Helvetica, Arial-Unicode, Arial, Sans-serif"
     id="text98">Created by Alfredo @ IconsAlfredo.com</text><text
     x="0"
     y="52"
     fill="#000000"
     font-size="5px"
     font-weight="bold"
     font-family="'Helvetica Neue', Helvetica, Arial-Unicode, Arial, Sans-serif"
     id="text100">from the Noun Project</text></svg>
